<svg xmlns="http://www.w3.org/2000/svg" width="274" height="150" viewBox="0 0 274 150" fill="none">
  <path d="M268.084 99.6928C265.853 99.6928 264.225 97.9559 264.225 95.7693C264.225 93.614 265.853 91.8485 268.055 91.8485C270.256 91.8485 271.855 93.614 271.855 95.7997C271.855 97.9559 270.256 99.6928 268.084 99.6928ZM268.055 90.8597C265.219 90.8597 262.958 93.0463 262.958 95.7693C262.958 98.5539 265.219 100.741 268.055 100.741C270.919 100.741 273.121 98.5539 273.121 95.7693C273.121 93.0463 270.919 90.8597 268.055 90.8597Z" fill="white"/>
  <path d="M267.844 95.5602H267.301V94.154C267.421 94.1245 267.633 94.0941 267.935 94.0941C268.657 94.0941 268.989 94.3927 268.989 94.8414C268.989 95.351 268.477 95.5602 267.844 95.5602ZM269.201 95.9204V95.8605C269.804 95.68 270.226 95.2616 270.226 94.7225C270.226 94.2434 270.015 93.8536 269.744 93.6436C269.382 93.4353 268.959 93.286 268.025 93.286C267.21 93.286 266.577 93.345 266.124 93.4353V98.3439H267.27V96.3683H267.814C268.447 96.3683 268.749 96.6079 268.839 97.1469C268.989 97.7155 269.08 98.1651 269.231 98.3439H270.467C270.346 98.1651 270.256 97.8666 270.105 97.1174C269.954 96.4586 269.683 96.1001 269.201 95.9204Z" fill="white"/>
  <path d="M134.641 70.2214C134.641 70.2214 134.45 70.3492 134.124 70.587C128.05 75.0335 126.057 83.1631 129.357 89.8998L134.331 100.051L139.441 89.4591C142.481 83.1568 140.95 75.5815 135.619 71.0188C135.308 70.7533 134.982 70.4869 134.641 70.2214Z" fill="white"/>
  <path d="M232.379 46.3067C229.399 52.6367 231.004 60.1977 236.378 64.7104C236.691 64.9732 237.019 65.236 237.363 65.4988C237.363 65.4988 237.553 65.3692 237.876 65.1278C243.908 60.625 245.823 52.4758 242.457 45.7703L237.386 35.6669L232.379 46.3067Z" fill="white"/>
  <path d="M11.9396 28.6224L13.7137 17.0118C14.7692 10.1034 11.0777 3.30134 4.63865 0.480945C4.26312 0.316459 3.87317 0.155547 3.46882 0C3.46882 0 3.32382 0.177897 3.08157 0.500611C-1.42127 6.5124 -0.938568 14.8654 4.19828 20.3534L11.9396 28.6224Z" fill="white"/>
  <path d="M0 31.677C0.646608 39.6608 1.05637 106.965 1.05637 106.965H14.6667L13.8336 31.3999L0 31.677Z" fill="white"/>
  <path d="M78.2087 31.1584C78.2087 31.1584 81.6192 65.1257 78.5401 84.3357C78.5401 84.3357 46.2971 48.1497 41.8041 43.5539C36.5646 38.1938 34.0908 34.5858 28.8639 32.6728C28.8639 32.6728 18.3794 67.1049 23.8261 106.965H37.2202C37.2202 106.965 33.7062 76.031 36.76 57.3663C36.76 57.3663 66.8615 91.6133 71.8786 96.5774C77.4405 102.081 83.0736 105.368 86.8641 107.315C86.8641 107.315 97.4259 70.509 91.1211 30.9305L78.2087 31.1584Z" fill="white"/>
  <path d="M134.589 31.1812C134.532 31.1517 134.458 31.1517 134.373 31.1812C134.373 31.1812 107.258 40.396 95.7847 106.965H109.295C109.295 106.965 117.228 62.1296 134.481 47.291C152.12 62.6159 159.667 106.965 159.667 106.965H173.155C161.682 40.396 134.589 31.1812 134.589 31.1812Z" fill="white"/>
  <path d="M244.245 15.2341L234.733 5.67428C197.894 42.554 156.692 29.0975 154.887 28.4878L155.393 41.8451C156.316 42.1625 161.554 44.1765 176.33 44.1765C177.496 44.1765 178.688 44.156 179.908 44.1104C180.939 61.7113 181.032 106.965 181.032 106.965L194.525 106.934L193.953 42.5299C209.579 39.5718 227.477 32.0225 244.245 15.2341Z" fill="white"/>
  <path d="M271.784 31.3941H258.407C260.023 91.2733 240.503 93.9006 236.267 93.796C235.473 93.8157 234.119 93.7388 232.454 93.2069C228.499 92.211 225.432 89.4058 223.039 85.603C218.699 78.4684 214.772 66.4725 214.12 44.2607C209.997 45.9529 205.762 47.3582 201.426 48.481C202.463 80.6863 212.954 95.5562 222.335 102.001C232.366 108.894 245.686 108.486 254.372 99.983C273.318 81.4336 271.914 34.6597 271.784 31.3941Z" fill="white"/>
  <path d="M0.78529 136.162C0.78529 136.162 0.852833 136.062 0.978913 135.892C3.3339 132.721 7.64132 131.68 11.2103 133.403L16.5885 136L10.9761 138.668C7.63772 140.254 3.62478 139.456 1.20766 136.672C1.06627 136.51 0.925779 136.34 0.78529 136.162Z" fill="white"/>
  <path d="M258.701 136.162C258.701 136.162 258.634 136.062 258.507 135.892C256.152 132.721 251.845 131.68 248.276 133.403L242.898 136L248.51 138.668C251.848 140.254 255.861 139.456 258.278 136.672C258.42 136.51 258.56 136.34 258.701 136.162Z" fill="white"/>
  <path d="M26.4146 140.068H35.2068C33.7659 136.91 32.2503 133.749 30.8094 130.813C29.3306 133.749 27.8528 136.91 26.4146 140.068ZM37.252 144.582H24.3298C23.5706 146.276 22.8141 147.97 22.1693 149.623H16.294C20.614 140.22 25.9211 129.687 30.6211 121.409H30.9624C35.6607 129.687 40.9678 140.22 45.2878 149.623H39.4125C38.7677 147.93 38.0112 146.276 37.252 144.582Z" fill="white"/>
  <path d="M80.0037 121.409V149.623H74.5463L74.6607 133.447C71.2484 137.247 66.8905 143.04 64.3906 146.614H64.0871C61.5871 143.003 57.2265 137.247 53.8539 133.447L53.9692 149.623H48.4721V121.409C50.8982 121.409 59.2735 131.793 64.2375 138.301C69.2041 131.793 77.6181 121.409 80.0037 121.409Z" fill="white"/>
  <path d="M93.3486 140.068H102.141C100.7 136.91 99.1843 133.749 97.7434 130.813C96.2647 133.749 94.7868 136.91 93.3486 140.068ZM104.185 144.582H91.2638C90.5046 146.276 89.7482 147.97 89.1033 149.623H83.228C87.5508 140.22 92.8551 129.687 97.5534 121.409H97.8965C102.595 129.687 107.901 140.22 112.221 149.623H106.348C105.702 147.93 104.944 146.276 104.185 144.582Z" fill="white"/>
  <path d="M134.394 145.109V149.624H113.361C113.361 145.299 122.76 133.108 126.398 126.301H113.587V121.784H134.166C134.166 126.112 124.73 138.3 121.092 145.109H134.394Z" fill="white"/>
  <path d="M160.811 135.706C160.811 129.836 157.173 125.923 151.752 125.923C146.296 125.923 142.658 129.836 142.658 135.706C142.658 141.573 146.296 145.485 151.752 145.485C157.173 145.485 160.811 141.573 160.811 135.706ZM136.971 135.706C136.971 127.126 142.884 121.409 151.752 121.409C160.546 121.409 166.495 127.126 166.495 135.706C166.495 144.282 160.546 150 151.752 150C142.884 150 136.971 144.282 136.971 135.706Z" fill="white"/>
  <path d="M198.066 150C195.262 150 183.817 138.076 177.109 131.755L177.184 149.624H171.689V121.409C174.495 121.409 185.9 133.335 192.608 139.655L192.533 121.784H198.066V150Z" fill="white"/>
  <path d="M210.463 149.623H204.966V121.783H210.463V149.623Z" fill="white"/>
  <path d="M223.841 140.068H232.634C231.193 136.91 229.677 133.749 228.236 130.813C226.758 133.749 225.28 136.91 223.841 140.068ZM234.679 144.582H221.757C220.997 146.276 220.241 147.97 219.596 149.623H213.721C218.041 140.22 223.348 129.687 228.048 121.409H228.389C233.088 129.687 238.395 140.22 242.715 149.623H236.839C236.195 147.93 235.438 146.276 234.679 144.582Z" fill="white"/>
  <path d="M161.179 119.809L159.283 115.737C158.155 113.314 155.536 111.917 152.885 112.363C152.73 112.389 152.572 112.419 152.411 112.454C152.411 112.454 152.402 112.541 152.393 112.694C152.231 115.551 154.156 118.114 156.958 118.79L161.179 119.809Z" fill="white"/>
  <path d="M143.277 119.347L147.694 118.394C150.321 117.826 152.264 115.592 152.401 112.926C152.409 112.772 152.414 112.611 152.415 112.446C152.415 112.446 152.331 112.419 152.182 112.377C149.408 111.601 146.469 112.91 145.197 115.478L143.277 119.347Z" fill="white"/>
</svg>