<svg width="170" height="200" viewBox="0 0 170 200" fill="none" xmlns="http://www.w3.org/2000/svg">
<path d="M131.869 73.6883C132.387 73.4757 132.902 73.2602 133.415 73.0416C136.637 71.6688 140.318 73.7245 140.448 77.2242C140.961 91.0732 140.213 120.001 125 120.001C118.443 120.001 116.644 115.742 114.923 111.671C113.745 108.884 112.605 106.185 110 105.001C106.283 103.311 103.092 103.848 99.9313 104.38C95.3841 105.145 90.8992 105.9 85 100.001C84.8971 99.898 84.7906 99.7873 84.6829 99.6713L84.5136 99.486C83.0113 97.8152 81.1113 95.0258 79.4051 92.3384C77.6019 89.4983 79.2222 85.9517 82.2348 84.9669C83.1507 84.9889 84.0725 85 85 85C103.771 85 120.207 80.4488 131.869 73.6883Z" fill="white"/>
<path fill-rule="evenodd" clip-rule="evenodd" d="M165 130L170 100L165 50C165 22.3858 129.183 0 85 0C40.8172 0 5 22.3858 5 50L0 80L5 150C5 177.614 40.8172 200 85 200C129.183 200 160 185 165 150V130ZM64.7296 83.1538C62.7706 88.3899 63.028 94.529 66.7418 100.378C68.5153 103.172 71.4785 107.693 74.3934 110.608C78.2619 114.476 82.6156 117.349 87.6387 118.818C92.6111 120.273 96.9473 119.959 99.8312 119.575C100.634 119.468 101.311 119.376 101.878 119.298C101.968 119.5 102.059 119.701 102.15 119.897C103.215 122.196 105.287 126.271 109.331 129.62C113.797 133.319 119.233 135.001 125 135.001C134.442 135.001 141.464 130.171 145.894 124.278C149.929 118.91 152.035 112.501 153.253 107.111C155.72 96.1889 155.706 83.9072 155.438 76.6687C155.168 69.3824 151.485 63.9673 146.446 60.8211C148.936 57.0237 150 53.3164 150 50C150 44.6897 147.273 38.3771 140.328 32.297L131.608 48.5457C129.649 52.1955 125.102 53.5663 121.452 51.6076C117.803 49.6489 116.432 45.1024 118.391 41.4526L127.707 24.0934C122.282 21.4369 116.039 19.231 109.167 17.6573L98.5758 38.4087C96.6927 42.0981 92.1754 43.5624 88.486 41.6793C84.7966 39.7963 83.3323 35.2789 85.2154 31.5896L93.521 15.317C90.7423 15.1086 87.899 15 85 15C80.3195 15 75.7841 15.283 71.4318 15.8126L56.6134 43.5347C54.6607 47.1877 50.1164 48.5662 46.4634 46.6135C42.8104 44.6608 41.432 40.1166 43.3847 36.4636L52.1379 20.0881C46.1947 22.0705 40.8891 24.5474 36.3814 27.3646C24.4315 34.8334 20 43.231 20 50C20 56.769 24.4315 65.1666 36.3814 72.6354C43.8724 77.3172 53.5671 81.0589 64.7296 83.1538ZM32.5 100.001C32.5 95.8588 29.1421 92.501 25 92.501C20.8579 92.501 17.5 95.8588 17.5 100.001V150.001C17.5 154.143 20.8579 157.501 25 157.501C29.1421 157.501 32.5 154.143 32.5 150.001V100.001ZM62.5 125.001C62.5 120.859 59.1421 117.501 55 117.501C50.8579 117.501 47.5 120.859 47.5 125.001V145.001C47.5 149.143 50.8579 152.501 55 152.501C59.1421 152.501 62.5 149.143 62.5 145.001V125.001Z" fill="white"/>
</svg>
